<?xml version="1.0" encoding="UTF-8" standalone="no"?>
<svg
   height="100px"
   version="1.1"
   width="100px"
   id="svg12"
   sodipodi:docname="controller.svg"
   inkscape:version="1.1 (c68e22c387, 2021-05-23)"
   xmlns:inkscape="http://www.inkscape.org/namespaces/inkscape"
   xmlns:sodipodi="http://sodipodi.sourceforge.net/DTD/sodipodi-0.dtd"
   xmlns="http://www.w3.org/2000/svg"
   xmlns:svg="http://www.w3.org/2000/svg">
  <sodipodi:namedview
     id="namedview14"
     pagecolor="#ffffff"
     bordercolor="#666666"
     borderopacity="1.0"
     inkscape:pageshadow="2"
     inkscape:pageopacity="0.0"
     inkscape:pagecheckerboard="0"
     showgrid="false"
     inkscape:zoom="4.76"
     inkscape:cx="49.894958"
     inkscape:cy="49.894958"
     inkscape:window-width="1280"
     inkscape:window-height="659"
     inkscape:window-x="-7"
     inkscape:window-y="-7"
     inkscape:window-maximized="1"
     inkscape:current-layer="svg12" />
  <defs
     id="defs2" />
  <path
     d="M 66 74 L 66 70 L 22 70 L 22 74 Z M 62 34 L 62 30 L 26 30 L 26 34 Z M 66 26 L 66 22 L 26 22 L 26 26 Z"
     fill="rgb(41, 54, 111)"
     fill-rule="evenodd"
     id="path6"
     style="stroke:#f4f4f4;fill:none;stroke-opacity:1;stroke-width:0.5;stroke-miterlimit:4;stroke-dasharray:none" />
  <path
     d="M 66 70 L 66 26 L 22 26 L 22 70 Z M 50 66 L 50 58 L 54 58 L 54 62 L 34 62 L 34 58 L 38 58 L 38 66 Z M 62 54 L 62 30 L 26 30 L 26 54 Z"
     fill="rgb(65, 166, 246)"
     fill-rule="evenodd"
     id="path8"
     style="stroke:#f4f4f4;fill:none;stroke-opacity:1;stroke-width:0.5;stroke-miterlimit:4;stroke-dasharray:none" />
  <path
     d="M 62 78 L 62 74 L 50 74 L 50 78 Z M 38 78 L 38 74 L 26 74 L 26 78 Z M 70 70 L 70 54 L 74 54 L 74 38 L 78 38 L 78 50 L 70 50 L 70 26 L 66 26 L 66 70 Z M 54 50 L 54 38 L 50 38 L 50 50 Z M 38 50 L 38 38 L 34 38 L 34 50 Z"
     fill="rgb(26, 28, 44)"
     fill-rule="evenodd"
     id="path10"
     style="stroke:#f4f4f4;fill:none;stroke-opacity:1;stroke-width:0.5;stroke-miterlimit:4;stroke-dasharray:none" />
</svg>
